<?xml version="1.0" standalone="no"?><!DOCTYPE svg PUBLIC "-//W3C//DTD SVG 1.1//EN" "http://www.w3.org/Graphics/SVG/1.1/DTD/svg11.dtd"><svg t="1685444143932" class="icon" viewBox="0 0 1024 1024" version="1.1" xmlns="http://www.w3.org/2000/svg" p-id="1927" width="64" height="64" xmlns:xlink="http://www.w3.org/1999/xlink"><path d="M558.62 819.36c-11.38-1.76-23.09-4.82-35.13-9.18-16.42-5.95-23.54-25.48-15.54-41.01 6.76-13.13 22.29-18.9 36.21-13.96 26.59 9.43 49.37 9.46 67.89 0.03 48.48-24.68 62.34-106.02 62.46-106.83l58 8.99c-0.7 4.54-18.09 111.61-93.84 150.15-24.31 12.36-51.08 16.3-80.05 11.81z" fill="#11BB82" p-id="1928"></path><path d="M494.96 806.31c-27.36 10.53-54.35 12.37-80.73 5.43-82.2-21.6-121.9-122.55-123.55-126.83l54.77-21.08-27.39 10.54 27.36-10.6c8.38 21.49 39.8 79.78 83.86 91.26 20.08 5.24 42.26 0.38 66.19-14.46 12.56-7.78 28.95-5.45 38.35 5.95 11.11 13.48 8.29 34.07-6.49 43.36-10.83 6.82-21.63 12.29-32.37 16.43z" fill="#1C4CC3" p-id="1929"></path><path d="M208.73 453.31C127.69 453.31 62 387.62 62 306.58V130.51h146.73c81.04 0 146.73 65.69 146.73 146.73v29.35c0 81.03-65.7 146.72-146.73 146.72z" fill="#1AADF9" p-id="1930"></path><path d="M355.46 893.49H62V658.72C62 577.69 127.69 512 208.73 512c81.04 0 146.73 65.69 146.73 146.73v234.76z" fill="#1C4CC3" p-id="1931"></path><path d="M815.27 453.31c81.04 0 146.73-65.69 146.73-146.73V130.51H815.27c-81.04 0-146.73 65.69-146.73 146.73v29.35c0 81.03 65.7 146.72 146.73 146.72z" fill="#39E2A0" p-id="1932"></path><path d="M668.54 893.49H962V658.73C962 577.69 896.31 512 815.27 512c-81.04 0-146.73 65.69-146.73 146.73v234.76z" fill="#11BB82" p-id="1933"></path></svg>